<svg width="60" height="60" viewBox="0 0 60 60" fill="none" xmlns="http://www.w3.org/2000/svg">
<g clip-path="url(#clip0_1381_825)">
<path d="M59.25 30C59.25 13.8457 46.1543 0.75 30 0.75C13.8457 0.75 0.75 13.8457 0.75 30C0.75 46.1543 13.8457 59.25 30 59.25C46.1543 59.25 59.25 46.1543 59.25 30Z" fill="white"/>
<mask id="mask0_1381_825" style="mask-type:luminance" maskUnits="userSpaceOnUse" x="15" y="15" width="30" height="30">
<path d="M45 15H15V45H45V15Z" fill="white"/>
</mask>
<g mask="url(#mask0_1381_825)">
<path d="M44.4 30.3407C44.4 29.2771 44.3046 28.2544 44.1273 27.2725H30V33.0748H38.0727C37.725 34.9498 36.6683 36.5384 35.0796 37.6021V41.3657H39.9273C42.7637 38.7544 44.4 34.9088 44.4 30.3407Z" fill="#4285F4"/>
<path d="M29.9984 45.0001C34.0484 45.0001 37.4437 43.6568 39.9255 41.366L35.0778 37.6024C33.7347 38.5024 32.0165 39.0341 29.9984 39.0341C26.0915 39.0341 22.7847 36.3955 21.6051 32.8501H16.5938V36.7364C19.062 41.6387 24.1347 45.0001 29.9984 45.0001Z" fill="#34A853"/>
<path d="M21.6068 32.85C21.3067 31.95 21.1364 30.9887 21.1364 30C21.1364 29.0114 21.3067 28.05 21.6068 27.15V23.2637H16.5954C15.5796 25.2887 15 27.5796 15 30C15 32.4204 15.5796 34.7114 16.5954 36.7364L21.6068 32.85Z" fill="#FBBC04"/>
<path d="M29.9984 20.9659C32.2005 20.9659 34.1778 21.7227 35.7324 23.2091L40.0347 18.9067C37.437 16.4863 34.0415 15 29.9984 15C24.1347 15 19.062 18.3614 16.5938 23.2636L21.6051 27.15C22.7847 23.6046 26.0915 20.9659 29.9984 20.9659Z" fill="#E94235"/>
</g>
<path d="M59.25 30C59.25 13.8457 46.1543 0.75 30 0.75C13.8457 0.75 0.75 13.8457 0.75 30C0.75 46.1543 13.8457 59.25 30 59.25C46.1543 59.25 59.25 46.1543 59.25 30Z" stroke="#888888"/>
</g>
<defs>
<clipPath id="clip0_1381_825">
<rect width="60" height="60" fill="white"/>
</clipPath>
</defs>
</svg>
