<svg width="60" height="60" viewBox="0 0 60 60" fill="none" xmlns="http://www.w3.org/2000/svg">
<circle cx="30" cy="30" r="30" fill="#FFCD00"/>
<path d="M27.3361 40.431C28.2708 40.5637 29.2333 40.6326 30.2162 40.6326C39.1722 40.6326 46.4324 34.8945 46.4324 27.8163C46.4324 20.738 39.1722 15 30.2162 15C21.2602 15 14 20.738 14 27.8163C14 32.3925 17.0352 36.408 21.601 38.6753C21.3525 39.5339 20.0047 44.1994 19.9511 44.5659C19.9511 44.5659 19.9188 44.8413 20.0968 44.9463C20.2748 45.0514 20.484 44.9698 20.484 44.9698C20.9943 44.8985 26.4003 41.092 27.3361 40.431Z" fill="#333333"/>
</svg>
